<svg width="101" height="37" viewBox="0 0 101 37" fill="none" xmlns="http://www.w3.org/2000/svg">
<path d="M0.32 -1.90735e-06H6.8V22.72H20.84V28H0.32V-1.90735e-06ZM34.1044 28.32C31.8377 28.32 29.7977 27.8533 27.9844 26.92C26.1977 25.96 24.7977 24.64 23.7844 22.96C22.771 21.28 22.2644 19.3733 22.2644 17.24C22.2644 15.1067 22.771 13.2 23.7844 11.52C24.7977 9.84 26.1977 8.53333 27.9844 7.6C29.7977 6.64 31.8377 6.16 34.1044 6.16C36.371 6.16 38.3977 6.64 40.1844 7.6C41.971 8.53333 43.371 9.84 44.3844 11.52C45.3977 13.2 45.9044 15.1067 45.9044 17.24C45.9044 19.3733 45.3977 21.28 44.3844 22.96C43.371 24.64 41.971 25.96 40.1844 26.92C38.3977 27.8533 36.371 28.32 34.1044 28.32ZM34.1044 23.2C35.7044 23.2 37.011 22.6667 38.0244 21.6C39.0644 20.5067 39.5844 19.0533 39.5844 17.24C39.5844 15.4267 39.0644 13.9867 38.0244 12.92C37.011 11.8267 35.7044 11.28 34.1044 11.28C32.5044 11.28 31.1844 11.8267 30.1444 12.92C29.1044 13.9867 28.5844 15.4267 28.5844 17.24C28.5844 19.0533 29.1044 20.5067 30.1444 21.6C31.1844 22.6667 32.5044 23.2 34.1044 23.2ZM72.2753 6.48V24.4C72.2753 28.3467 71.2486 31.28 69.1953 33.2C67.142 35.12 64.142 36.08 60.1953 36.08C58.1153 36.08 56.142 35.8267 54.2753 35.32C52.4086 34.8133 50.862 34.08 49.6353 33.12L52.1153 28.64C53.022 29.3867 54.1686 29.9733 55.5553 30.4C56.942 30.8533 58.3286 31.08 59.7153 31.08C61.8753 31.08 63.462 30.5867 64.4753 29.6C65.5153 28.64 66.0353 27.1733 66.0353 25.2V24.28C64.4086 26.0667 62.142 26.96 59.2353 26.96C57.262 26.96 55.4486 26.5333 53.7953 25.68C52.1686 24.8 50.8753 23.5733 49.9153 22C48.9553 20.4267 48.4753 18.6133 48.4753 16.56C48.4753 14.5067 48.9553 12.6933 49.9153 11.12C50.8753 9.54667 52.1686 8.33333 53.7953 7.48C55.4486 6.6 57.262 6.16 59.2353 6.16C62.3553 6.16 64.7286 7.18667 66.3553 9.24V6.48H72.2753ZM60.4753 21.84C62.1286 21.84 63.4753 21.36 64.5153 20.4C65.582 19.4133 66.1153 18.1333 66.1153 16.56C66.1153 14.9867 65.582 13.72 64.5153 12.76C63.4753 11.7733 62.1286 11.28 60.4753 11.28C58.822 11.28 57.462 11.7733 56.3953 12.76C55.3286 13.72 54.7953 14.9867 54.7953 16.56C54.7953 18.1333 55.3286 19.4133 56.3953 20.4C57.462 21.36 58.822 21.84 60.4753 21.84ZM88.3231 28.32C86.0565 28.32 84.0165 27.8533 82.2031 26.92C80.4165 25.96 79.0165 24.64 78.0031 22.96C76.9898 21.28 76.4831 19.3733 76.4831 17.24C76.4831 15.1067 76.9898 13.2 78.0031 11.52C79.0165 9.84 80.4165 8.53333 82.2031 7.6C84.0165 6.64 86.0565 6.16 88.3231 6.16C90.5898 6.16 92.6165 6.64 94.4031 7.6C96.1898 8.53333 97.5898 9.84 98.6031 11.52C99.6165 13.2 100.123 15.1067 100.123 17.24C100.123 19.3733 99.6165 21.28 98.6031 22.96C97.5898 24.64 96.1898 25.96 94.4031 26.92C92.6165 27.8533 90.5898 28.32 88.3231 28.32ZM88.3231 23.2C89.9231 23.2 91.2298 22.6667 92.2431 21.6C93.2831 20.5067 93.8031 19.0533 93.8031 17.24C93.8031 15.4267 93.2831 13.9867 92.2431 12.92C91.2298 11.8267 89.9231 11.28 88.3231 11.28C86.7231 11.28 85.4031 11.8267 84.3631 12.92C83.3231 13.9867 82.8031 15.4267 82.8031 17.24C82.8031 19.0533 83.3231 20.5067 84.3631 21.6C85.4031 22.6667 86.7231 23.2 88.3231 23.2Z" fill="#FF014F"/>
</svg>
